<?xml version="1.0" standalone="no"?>
<!DOCTYPE svg PUBLIC "-//W3C//DTD SVG 20010904//EN"
 "http://www.w3.org/TR/2001/REC-SVG-20010904/DTD/svg10.dtd">
<svg version="1.0" xmlns="http://www.w3.org/2000/svg"
 width="198.000000pt" height="189.000000pt" viewBox="0 0 198.000000 189.000000"
 preserveAspectRatio="xMidYMid meet">
<metadata>
Created by potrace 1.15, written by Peter Selinger 2001-2017
</metadata>
<g transform="translate(0.000000,189.000000) scale(0.100000,-0.100000)"
fill="#000000" stroke="none">
<path d="M86 1634 c-14 -14 -16 -77 -16 -550 l0 -534 445 0 c310 0 445 -3 445
-11 0 -6 7 -3 16 5 17 17 30 20 37 8 3 -4 208 -6 456 -4 l451 2 0 534 c0 473
-2 536 -16 550 -14 14 -110 16 -909 16 -799 0 -895 -2 -909 -16z m1754 -534
l0 -480 -845 0 -845 0 0 480 0 480 845 0 845 0 0 -480z"/>
<path d="M610 1403 c-45 -18 -50 -32 -50 -148 0 -135 6 -145 93 -145 78 0 87
15 87 146 0 120 -11 143 -75 149 -22 3 -47 2 -55 -2z m78 -145 l3 -98 -41 0
-40 0 0 93 c0 52 3 97 7 101 4 4 21 6 38 4 l30 -3 3 -97z"/>
<path d="M820 1403 c-37 -14 -50 -36 -50 -85 0 -64 23 -88 85 -88 45 0 45 0
45 -35 0 -34 -1 -35 -40 -35 -33 0 -40 3 -40 20 0 15 -7 20 -25 20 -21 0 -25
-5 -25 -28 0 -44 27 -62 93 -62 67 0 87 20 87 87 0 59 -25 83 -86 83 l-45 0 3
38 c3 35 5 37 38 37 29 0 36 -4 38 -23 3 -17 9 -22 25 -20 28 4 33 38 10 67
-19 23 -83 37 -113 24z"/>
<path d="M1023 1400 c-29 -12 -43 -41 -43 -89 0 -56 26 -81 85 -81 45 0 45 0
45 -35 0 -34 -1 -35 -40 -35 -33 0 -40 3 -40 20 0 15 -7 20 -25 20 -19 0 -25
-5 -25 -23 0 -12 7 -33 16 -45 13 -18 25 -22 73 -22 72 0 91 17 91 81 0 62
-17 82 -76 88 -48 6 -49 7 -49 41 0 33 2 35 35 35 29 0 36 -4 38 -22 3 -17 10
-23 28 -23 20 0 24 5 24 28 0 16 -9 37 -19 46 -23 21 -87 30 -118 16z"/>
<path d="M1265 1400 c-4 -6 -4 -22 -1 -36 8 -30 -41 -196 -60 -207 -8 -4 -14
-17 -14 -27 0 -17 7 -20 50 -20 41 0 50 3 50 18 0 10 -5 23 -12 30 -9 9 -1 12
38 11 27 0 43 -3 37 -6 -7 -2 -13 -16 -13 -29 0 -22 4 -24 45 -24 41 0 45 2
45 24 0 13 -4 26 -10 28 -5 2 -27 57 -48 123 -37 118 -38 120 -69 123 -17 2
-34 -2 -38 -8z"/>
</g>
</svg>
